<?xml version="1.0" encoding="UTF-8"?>
<svg width="24px" height="24px" viewBox="0 0 24 24" version="1.1" xmlns="http://www.w3.org/2000/svg" xmlns:xlink="http://www.w3.org/1999/xlink">
    <!-- Generator: Sketch 55.2 (78181) - https://sketchapp.com -->
    <title>FAQ -</title>
    <desc>Created with Sketch.</desc>
    <g id="Batch-5" stroke="none" stroke-width="1" fill="none" fill-rule="evenodd">
        <g id="FAQ---Desktop" transform="translate(-209.000000, -477.000000)" fill="#17409C">
            <g id="Group-2" transform="translate(45.000000, 477.000000)">
                <g id="FAQ--" transform="translate(164.000000, 0.000000)">
                    <g id="Group-6">
                        <path d="M13.0711862,11.1594712 C14.8484276,11.1460475 16.625669,11.1529627 18.4029103,11.1529627 L18.7778069,11.1529627 L18.7778069,12.926522 L18.4219448,12.926522 C16.6339448,12.926522 14.8459448,12.9326237 13.0583586,12.9204203 C12.7765655,12.9183864 10.897531,12.926522 10.4473241,12.926522 L5.21284138,12.926522 L4.80028966,12.926522 L4.80028966,11.1529627 L5.17104828,11.1529627 C6.94828966,11.1529627 8.72553103,11.1460475 10.5027724,11.1590644 C10.8114621,11.1615051 12.7670483,11.1619119 13.0711862,11.1594712 Z" id="Fill-4"></path>
                        <path d="M21.7984138,12.0469017 C21.7711034,6.72459661 17.4978621,2.22195254 11.8148276,2.21584436 C6.26627586,2.20974915 1.86351724,6.50696949 1.79648276,11.9789695 C1.72986207,17.3960542 6.24931034,21.8702237 11.7916552,21.8625049 C17.3083448,21.8543593 21.7471034,17.533139 21.7984138,12.0469017 L21.7984138,12.0469017 Z M13.671931,0.406901695 C13.9731724,0.474427119 14.274,0.540732203 14.5752414,0.609477966 C16.7356552,1.10290169 18.6213103,2.10113898 20.1949655,3.63469831 C22.0822759,5.47415593 23.3054483,7.68988475 23.5930345,10.2892068 C23.9629655,13.6329356 23.2648966,16.7423593 20.982,19.3713763 C19.1331724,21.5008678 16.8424138,22.9469695 14.0145517,23.4408 C10.3363448,24.0831051 7.01565517,23.2483932 4.1517931,20.8707661 C1.83455172,18.9475119 0.462827586,16.4791729 0.0995172414,13.5129356 C-0.386275862,9.54642712 0.913034483,6.19537627 3.84724138,3.45693559 C5.58889655,1.83185085 7.65703448,0.830359322 10.0375862,0.467511864 C10.0872414,0.459783051 10.1335862,0.427647458 10.1811724,0.406901695 L13.671931,0.406901695 Z" id="Fill-1"></path>
                    </g>
                </g>
            </g>
        </g>
    </g>
</svg>