<?xml version="1.0" encoding="UTF-8"?>
<svg width="26px" height="26px" viewBox="0 0 26 26" version="1.1" xmlns="http://www.w3.org/2000/svg" xmlns:xlink="http://www.w3.org/1999/xlink">
    <!-- Generator: Sketch 55.2 (78181) - https://sketchapp.com -->
    <title>phone-receiver</title>
    <desc>Created with Sketch.</desc>
    <g id="Batch-5" stroke="none" stroke-width="1" fill="none" fill-rule="evenodd">
        <g id="Netjets-1---Desktop" transform="translate(-45.000000, -446.000000)" fill="#FFFFFF" fill-rule="nonzero">
            <g id="Group-12" transform="translate(43.000000, 190.000000)">
                <g id="Group-4-Copy" transform="translate(2.000000, 255.000000)">
                    <g id="phone-receiver" transform="translate(0.000000, 1.000000)">
                        <path d="M25.9876071,20.5190323 C26.0427009,20.9413929 25.9140739,21.3086239 25.6022658,21.6207253 L21.9415225,25.2561772 C21.7763762,25.4397927 21.5608135,25.5960009 21.2947444,25.7243967 C21.0286754,25.8529726 20.7672387,25.9355996 20.5104344,25.9722777 C20.4920848,25.9722777 20.4369011,25.9770031 20.3451082,25.9861838 C20.2534951,25.9953196 20.1342228,26 19.9874261,26 C19.6386939,26 19.074399,25.940325 18.2945414,25.8209299 C17.5146839,25.7015348 16.5605501,25.407705 15.4321403,24.9395755 C14.3034606,24.4713559 13.0236217,23.7689366 11.5923986,22.8325876 C10.1611755,21.8962836 8.63811457,20.610885 7.02335063,18.9766621 C5.73887931,17.7097151 4.67460308,16.4978528 3.83052193,15.3411201 C2.98644078,14.1842975 2.30750594,13.1147372 1.79371742,12.1323943 C1.27988392,11.1500513 0.894542523,10.2595161 0.63764826,9.46078871 C0.380753997,8.66206128 0.20643289,7.97350315 0.114684939,7.39511432 C0.0229369878,6.81672549 -0.0137621927,6.36227712 0.00458739755,6.03176922 C0.0229369878,5.70126132 0.0321117829,5.51764582 0.0321117829,5.48092272 C0.0688109633,5.22386101 0.151384119,4.96220892 0.279831251,4.69596645 C0.408278382,4.42972397 0.564249899,4.21397576 0.747745801,4.04872181 L4.40848905,0.385592553 C4.66538331,0.128530851 4.95897676,0 5.28926938,0 C5.52781405,0 5.73883434,0.068855813 5.92233024,0.206567439 C6.10582614,0.344279065 6.26179766,0.514123404 6.39024479,0.716100455 L9.33535402,6.30719247 C9.50050033,6.60097727 9.54637431,6.9223044 9.47297595,7.27117385 C9.39957759,7.62004331 9.24360607,7.91382811 9.0050614,8.15252826 L7.65636652,9.5021022 C7.61966734,9.5388253 7.58755555,9.59850033 7.56003117,9.68112731 C7.53250678,9.76375429 7.51874459,9.8326101 7.51874459,9.88769475 C7.59214295,10.2732873 7.75728926,10.7139645 8.01418353,11.2097264 C8.23437861,11.6504036 8.57384603,12.1874789 9.03258578,12.8209524 C9.49132554,13.4544259 10.142736,14.1842525 10.9868171,15.0105222 C11.8125487,15.8552435 12.5465323,16.511579 13.188768,16.9798885 C13.8308687,17.447928 14.3677741,17.7923421 14.7989895,18.0126807 C15.2302049,18.2330193 15.5604975,18.3661405 15.7898224,18.4119094 L16.1337872,18.4808102 C16.1704864,18.4808102 16.2302575,18.466994 16.3127407,18.4394967 C16.3953139,18.4119094 16.4549501,18.3798217 16.4916942,18.3430536 L18.0605392,16.7455987 C18.3910117,16.4518589 18.7761732,16.3049665 19.2166084,16.3049665 C19.5286413,16.3049665 19.7762259,16.3600062 19.9597218,16.4702205 L19.9872012,16.4702205 L25.2993626,19.6100455 C25.6848389,19.8489257 25.9141638,20.1518013 25.9876071,20.5190323 Z" id="Path"></path>
                    </g>
                </g>
            </g>
        </g>
    </g>
</svg>