<?xml version="1.0" standalone="no"?>
<!DOCTYPE svg PUBLIC "-//W3C//DTD SVG 1.1//EN" "http://www.w3.org/Graphics/SVG/1.1/DTD/svg11.dtd" >
<svg xmlns="http://www.w3.org/2000/svg">
<metadata>Generated by IcoMoon</metadata>
<defs>
<font id="icomoon" horiz-adv-x="1024">
<font-face units-per-em="1024" ascent="960" descent="-64" />
<missing-glyph horiz-adv-x="1024" />
<glyph unicode="&#x20;" horiz-adv-x="512" d="" />
<glyph unicode="&#xe900;" glyph-name="Icon---Login" horiz-adv-x="853" d="M258.192 597.834h335.107c0 42.443 0.208 83.845-0.135 125.247-0.095 11.113-1.011 22.366-2.992 33.294-13.855 76.392-84.542 134.267-163.834 134.552-79.164 0.291-150.254-57.254-164.587-133.556-1.971-10.481-3.307-21.241-3.402-31.884-0.382-42.292-0.157-84.584-0.157-127.653zM427.377 515.063c-99.621 0-199.242 0.028-298.863-0.017-33.1-0.017-44.62-11.589-44.626-44.709-0.028-135.655-0.028-271.31 0-406.964 0.006-33.316 11.924-45.039 45.889-45.045 197.373-0.028 394.734-0.028 592.112 0 34.549 0 46.029 11.6 46.029 46.304 0.017 134.726 0.017 269.446 0 404.167 0 35.202-10.931 46.242-45.895 46.253-98.218 0.028-196.435 0.011-294.647 0.011zM175.054 596.787c0 38.241-0.662 74.131 0.129 109.982 2.133 95.898 43.133 170.286 126.119 219.97 98.436 58.933 232.118 37.446 308.996-47.787 44.699-49.555 65.684-107.537 66.38-173.42 0.371-35.409 0.067-70.829 0.067-108.018 5.575-0.263 10.476-0.688 15.382-0.699 32.281-0.056 64.561 0.118 96.836-0.073 38.922-0.229 62.608-22.808 62.675-61.49 0.303-178.584 0.286-357.169 0.022-535.753-0.062-40.635-23.764-62.744-65.836-62.755-227.818-0.056-455.641-0.078-683.464 0.067-19.116 0.011-38.49-0.358-57.28 2.49-25.645 3.9-42.319 24.403-44.48 50.405-0.387 4.644-0.567 9.311-0.567 13.967-0.034 175.787-0.067 351.573 0.006 527.36 0.011 35.258 14.748 56.51 44.592 63.919 7.13 1.768 14.821 1.723 22.254 1.757 35.441 0.168 70.883 0.078 108.166 0.078z" />
<glyph unicode="&#xe901;" glyph-name="Icon---Logout" horiz-adv-x="1265" d="M527.059 960v-102.4h632.471v-819.2h-632.471v-102.4h737.882v1024h-737.882zM527.059 580.71l156.168-132.71-156.168-132.71v81.51h-421.647v102.4h421.647v81.51zM421.647 806.4v-204.8h-421.647v-307.2h421.647v-204.8l421.647 358.4-421.647 358.4z" />
<glyph unicode="&#xe902;" glyph-name="Icon---Profile" d="M364.184 666.49c-0.206-87.44 66.326-159.104 147.752-159.155 80.528-0.051 148.693 72.295 148.428 157.532-0.269 85.908-67.668 158.169-147.868 158.512-81.289 0.355-148.106-70.328-148.312-156.89zM512.682 408.902c-122.248-0.299-238.346 103.385-236.977 259.779 1.136 129.563 103.507 245.924 229.622 248.448 135.214 2.71 243.455-109.403 242.979-252.747-0.47-140.324-108.595-254.99-235.625-255.48zM0.001-20.414c10.24 27.184 17.643 52.626 29.047 76.13 48.62 100.192 128.241 168.53 227.636 215.431 94.801 44.728 195.259 61.518 299.237 54.168 131.699-9.3 249.884-53.766 347.975-144.2 56.936-52.487 97.616-115.697 117.352-191.307 0.694-2.653 0.923-5.429 1.679-10.009-28.952 0-57.199-0.229-85.423 0.369-2.647 0.056-6.34 4.887-7.593 8.222-42.997 114.217-129.869 181.745-241.088 220.251-126.735 43.879-253.913 40.562-378.41-10.071-90.599-36.847-162.324-95.835-204.727-186.202-0.99-2.106-2.714-4.094-2.982-6.272-3.19-25.593-19.853-28.67-41.559-26.844-18.874 1.597-37.994 0.335-61.143 0.335z" />
<glyph unicode="&#xe903;" glyph-name="Icon---Search" horiz-adv-x="1059" d="M365.475 809.289c-116.404 0.053-210.418-89.757-210.567-201.153-0.149-111.209 93.938-201.583 210.104-201.803 116.523-0.223 211.45 90.459 211.34 201.896-0.115 111.055-94.452 201.002-210.877 201.059zM545.535 384.321c-135.378-94.773-307.41-68.171-404.589 40.756-98.359 110.251-92.94 273.307 12.471 379.013 100.968 101.255 269.58 114.434 390.168 28.357 119.161-85.058 161.629-259.101 58.202-393.89 82.099-79.039 164.050-157.935 245.661-236.503-19.408-18.524-37.643-35.927-56.779-54.191-81.22 78.34-163.048 157.278-245.134 236.458z" />
<glyph unicode="&#xe904;" glyph-name="Icon---Cart" horiz-adv-x="979" d="M800.534 32.823c29.818 0.020 53.999 23.472 54.125 52.444 0.147 29.136-24.726 53.221-54.691 53.017-29.629-0.225-53.559-24.004-53.413-53.098 0.126-29.177 24.056-52.383 53.978-52.362v0zM376.544 32.823c29.881 0.082 53.643 23.411 53.643 52.669 0 29.136-23.951 52.689-53.685 52.792-29.86 0.102-54.754-24.29-54.46-53.323 0.314-28.87 24.747-52.24 54.502-52.137v0zM242.373 686.237v-12.717c0-86.65 0.712-173.321-0.314-259.971-0.461-35.637 23.972-62.36 63.869-62.054 136.706 1.084 273.412 0.409 410.139 0.429 36.586 0 73.173-0.348 109.759 0.123 31.872 0.409 55.11 22.429 55.403 53.405 0.587 62.626 0.126 125.273 0.356 187.92 0.021 6.113-2.724 7.81-8.151 8.322-7.585 0.736-15.15 1.84-22.714 2.862-94.148 12.677-188.296 25.394-282.423 38.071-90.523 12.186-181.066 24.372-271.589 36.517-17.685 2.372-35.371 4.621-54.335 7.095v0zM78.301 915.478c29.189-12.268 58.337-24.597 87.568-36.782 18.922-7.892 37.864-15.805 56.975-23.288 13.788-5.377 20.053-14.823 19.844-29.279-0.335-25.312-0.084-50.624-0.084-75.957v-11.388c25.292-3.476 49.85-6.911 74.43-10.223 75.058-10.121 150.138-20.221 225.196-30.301 80.004-10.755 160.049-21.448 240.053-32.203 43.124-5.807 86.269-11.613 129.372-17.584 13.725-1.901 22.966-11.838 22.987-25.292 0.105-74.342 0.838-148.684-0.377-223.005-0.88-53.323-48.363-98.529-103.074-99.94-33.904-0.9-67.85-0.327-101.817-0.327-133.71-0.020-267.461 0.061-401.192-0.061-28.917-0.020-57.981-1.574-84.090 13.842 0-27.991-1.907-55.184 0.608-82.009 2.054-21.979 24.223-38.929 47.084-41.076 5.28-0.491 10.624-0.532 15.925-0.532 161.684-0.041 323.388-0.164 485.072 0.082 41.301 0.061 74.849-14.271 97.542-48.478 41.029-61.849 5.050-144.145-69.024-159.111-2.179-0.45-4.254-1.349-6.37-2.045h-27.932c-1.865 0.613-3.688 1.452-5.595 1.779-50.835 8.976-88.763 51.667-87.82 101.964 0.335 17.911 6.391 35.74 9.744 53.241h-233.829c1.739-3.742 3.101-6.625 4.421-9.528 26.109-56.717-4.463-123.515-65.189-142.304-6.265-1.942-12.677-3.455-18.985-5.152h-27.953c-1.509 0.613-2.913 1.472-4.442 1.758-56.472 10.509-93.98 58.925-87.401 114.539 1.676 14.149 7.376 27.868 11.252 41.853-8.172 2.617-18 4.662-26.78 8.771-43.669 20.385-64.937 54.57-64.917 101.76 0.084 184.341-0.021 368.683 0.21 553.024 0 7.545-1.949 11.348-9.513 14.353-39.331 15.662-78.39 32.080-117.533 48.191-11.106 4.58-18.063 12.329-18.146 24.351-0.084 11.879 6.035 20.221 17.455 24.719 0.88 0.348 1.572 1.084 2.347 1.636h13.977z" />
<glyph unicode="&#xe905;" glyph-name="Icon---Close" d="M70.704-64c-22.724 23.783-44.227 45.453-64.272 68.386-2.303 2.641 1.619 14.195 5.858 18.465 65.479 66.082 131.511 131.629 197.395 197.307 71.521 71.305 143.049 142.603 214.511 213.96 4.688 4.68 8.867 9.874 14.983 16.726-146.824 145.838-292.876 290.899-439.178 436.216 25.624 25.58 49.179 49.099 73.066 72.941 145.551-145.618 290.801-290.936 437.272-437.471 9.199 8.070 15.807 13.234 21.701 19.11 134.874 134.335 269.659 268.737 404.466 403.139 17.956 17.9 17.926 17.907 36.368-0.499 13.857-13.836 27.191-28.273 41.806-41.265 11.634-10.329 10.347-17.408-0.339-27.95-74.501-73.491-148.414-147.577-222.525-221.457-62.418-62.216-124.858-124.403-187.291-186.597-17.168-17.107-17.168-17.085-0.368-33.841 135.676-135.252 271.351-270.505 407.005-405.765 17.095-17.041 17.065-17.093 0.228-33.907-14.291-14.268-29.509-27.744-42.652-42.996-11.156-12.948-18.235-10.402-29.163 0.558-107.145 107.501-214.791 214.495-322.282 321.651-29.906 29.813-60.321 59.15-89.396 89.748-11.524 12.126-18.265 10.417-29.281-0.624-134.454-134.717-269.357-268.979-404.172-403.337-6.446-6.419-13.209-12.537-23.74-22.499z" />
<glyph unicode="&#xe906;" glyph-name="Icon---Hamburger" horiz-adv-x="1205" d="M85.333 960h1034.039c47.128 0 85.333-38.205 85.333-85.333v0c0-47.128-38.205-85.333-85.333-85.333h-1034.039c-47.128 0-85.333 38.205-85.333 85.333v0c0 47.128 38.205 85.333 85.333 85.333zM85.333 533.333h1034.039c47.128 0 85.333-38.205 85.333-85.333v0c0-47.128-38.205-85.333-85.333-85.333h-1034.039c-47.128 0-85.333 38.205-85.333 85.333v0c0 47.128 38.205 85.333 85.333 85.333zM85.333 106.667h1034.039c47.128 0 85.333-38.205 85.333-85.333v0c0-47.128-38.205-85.333-85.333-85.333h-1034.039c-47.128 0-85.333 38.205-85.333 85.333v0c0 47.128 38.205 85.333 85.333 85.333z" />
<glyph unicode="&#xe907;" glyph-name="Icon---Help" d="M932.272 434.832c6.552 216.858-157.428 423.336-406.567 432.986-215.781 8.36-422.775-156.494-432.498-406.65-8.395-216.010 156.318-423.263 406.203-432.952 216.543-8.393 421.671 157.263 432.863 406.617zM0 448.006c5.111 288.942 226.626 512.566 513.247 511.993 288.796-0.567 510.91-226.137 510.753-511.982-0.157-289.564-226.133-512.582-512.137-512.016-288.162 0.561-506.869 225.52-511.863 512.005zM465.455 215.273h93.091v279.273h-93.091zM558.543 633.368c-0.272-25.78-20.68-45.782-46.666-45.731-26.379 0.050-46.696 20.742-46.419 47.268 0.277 26.108 21.471 46.356 47.951 45.812 25.502-0.519 45.411-21.407 45.134-47.349z" />
<glyph unicode="&#xe908;" glyph-name="Icon---arrow-down" horiz-adv-x="1707" d="M853.333-64l-853.333 1024h1706.667z" />
<glyph unicode="&#xe909;" glyph-name="Icon---arrow-left" horiz-adv-x="614" d="M0 448l614.4 512v-1024z" />
<glyph unicode="&#xe90a;" glyph-name="Icon---arrow-right" horiz-adv-x="614" d="M614.4 448l-614.4-512v1024z" />
<glyph unicode="&#xe90b;" glyph-name="Icon---arrow-up" horiz-adv-x="1707" d="M853.333 960l853.333-1024h-1706.667z" />
<glyph unicode="&#xe90c;" glyph-name="Icon---Back-Arrow" horiz-adv-x="1408" d="M1236.39 418.095c-101.929 122.369-293.981 268.020-632.592 280.513v226.568c0 13.344-7.774 25.837-20.155 31.515s-27.066 3.975-37.431-4.543l-533.254-433.545c-8.062-6.53-12.957-16.467-12.957-26.688 0-10.505 4.607-20.158 12.669-26.688l533.254-435.249c10.654-8.518 25.050-10.505 37.431-4.543 12.381 5.678 20.155 17.887 20.155 31.515v225.716c221.134-0.852 559.168-17.035 738.551-329.063 6.335-11.073 18.14-17.603 30.809-17.603 2.879 0 6.047 0.284 8.926 1.136 15.548 3.975 26.202 17.887 26.202 33.503 0.288 116.691-44.918 295.276-171.609 447.457zM568.382 352.226v0c-9.502 0-18.428-3.691-25.050-10.221s-10.366-15.332-10.366-24.701v-186.535l-441.979 360.862 442.267 359.726v-186.535c0-19.023 15.548-34.638 34.84-34.922 506.764-4.827 695.649-309.472 750.645-523.548-218.254 245.59-545.060 245.874-750.357 245.874z" />
<glyph unicode="&#xe90d;" d="M18.286 452.571c0 273.512 221.726 495.238 495.238 495.238s495.238-221.726 495.238-495.238c0-273.512-221.726-495.238-495.238-495.238s-495.238 221.726-495.238 495.238z" />
<glyph unicode="&#xe90e;" d="M380.19 452.571l186.667-186.667 53.333 57.143-129.524 129.524 129.524 129.524-53.333 57.143z" />
<glyph unicode="&#xe90f;" d="M1024 437.333c0-273.512-221.726-495.238-495.238-495.238s-495.238 221.726-495.238 495.238c0 273.512 221.726 495.238 495.238 495.238s495.238-221.726 495.238-495.238z" />
<glyph unicode="&#xe910;" d="M662.095 437.333l-186.667 186.667-53.333-57.143 129.524-129.524-129.524-129.524 53.333-57.143z" />
<glyph unicode="&#xe911;" glyph-name="Icon---X" d="M70.714-64c-22.741 23.787-44.248 45.455-64.292 68.376-2.286 2.643 1.646 14.217 5.874 18.478 65.48 66.075 131.509 131.626 197.4 197.313 71.514 71.292 143.028 142.585 214.496 213.946 4.685 4.694 8.868 9.866 14.993 16.747-146.822 145.82-292.866 290.889-439.185 436.208 25.621 25.587 49.184 49.1 73.068 72.933 145.565-145.615 290.809-290.934 437.265-437.461 9.211 8.066 15.816 13.238 21.712 19.116 134.868 134.337 269.645 268.719 404.445 403.125 17.964 17.909 17.941 17.909 36.385-0.501 13.85-13.83 27.175-28.253 41.802-41.263 11.633-10.321 10.331-17.407-0.343-27.934-74.508-73.503-148.421-147.597-222.518-221.465-62.417-62.224-124.858-124.403-187.298-186.604-17.164-17.111-17.164-17.088-0.366-33.835 135.668-135.248 271.336-270.519 407.005-405.768 17.096-17.043 17.073-17.088 0.229-33.926-14.284-14.263-29.506-27.729-42.648-42.994-11.153-12.942-18.238-10.39-29.163 0.57-107.145 107.497-214.793 214.492-322.281 321.648-29.917 29.825-60.338 59.148-89.409 89.748-11.519 12.144-18.238 10.412-29.255-0.615-134.457-134.724-269.371-268.993-404.171-403.33-6.468-6.425-13.21-12.554-23.747-22.511z" />
<glyph unicode="&#xe912;" glyph-name="Icon---Caret---Down" horiz-adv-x="1843" d="M1843.2 850.471c-35.156 36.195-70.125 72.204-103.84 106.918-273.030-269.736-545.698-539.111-815.23-805.38-271.732 268.42-544.895 538.255-817.98 807.991-36.586-37.841-71.401-73.861-106.15-109.804 305.546-303.145 614.514-609.68 921.446-914.196 305.425 303.013 614.492 609.636 921.754 914.471z" />
<glyph unicode="&#xe913;" glyph-name="Icon---Caret---Left" horiz-adv-x="569" d="M508.039-64c20.108 19.531 40.113 38.958 59.399 57.689-149.854 151.684-299.506 303.165-447.433 452.906 149.122 150.962 299.031 302.719 448.884 454.433-21.023 20.326-41.034 39.667-61.002 58.972-168.414-169.748-338.711-341.396-507.887-511.914 168.341-169.681 338.687-341.384 508.039-512.086z" />
<glyph unicode="&#xe914;" glyph-name="Icon---Caret---Right" horiz-adv-x="569" d="M60.85 960c-20.108-19.531-40.113-38.958-59.399-57.689 149.854-151.684 299.506-303.165 447.433-452.906-149.122-150.962-299.031-302.719-448.884-454.433 21.023-20.326 41.034-39.667 61.002-58.972 168.414 169.748 338.711 341.396 507.887 511.914-168.341 169.681-338.687 341.384-508.039 512.086z" />
<glyph unicode="&#xe915;" glyph-name="Icon---Caret---Up" horiz-adv-x="1843" d="M0 45.529c35.156-36.195 70.125-72.204 103.84-106.918 273.030 269.736 545.698 539.111 815.23 805.38 271.732-268.42 544.895-538.255 817.98-807.991 36.586 37.841 71.401 73.861 106.15 109.804-305.546 303.145-614.514 609.68-921.446 914.196-305.425-303.013-614.492-609.636-921.754-914.471z" />
<glyph unicode="&#xe918;" glyph-name="FAQ-minus" d="M464.979 740.661h76.129c0.282-5.241 0.777-10.448 0.777-15.638 0.053-74.995 0.318-149.973-0.212-224.968-0.088-12.253 3.054-16.297 16.031-16.193 75.829 0.573 151.658 0.278 227.487 0.278h15.996v-75.672h-15.183c-76.288 0-152.576-0.26-228.846 0.26-12.023 0.087-15.607-2.846-15.501-14.996 0.583-74.092 0.265-148.185 0.265-222.277v-17.217h-76.941v13.815c0 73.641 0.018 147.282 0 220.924 0 19.473-0.018 19.491-19.226 19.491h-240.94v75.672h15.819c75.829 0 151.658 0.295 227.487-0.26 13.171-0.104 17.249 3.471 17.161 16.662-0.618 74.526-0.3 149.070-0.3 223.614v16.505zM504.099 865.457c-236.738 0.26-424.589-183.088-427.449-416.56-2.842-231.129 189.987-422.027 426.461-421.698 235.379 0.348 424.766 184.72 426.955 418.799-1.165 227.085-183.49 419.198-425.966 419.458zM583.336 942.639c12.853-2.881 25.688-5.71 38.541-8.643 92.178-21.053 172.632-63.644 239.775-129.076 80.525-78.484 132.714-173.021 144.984-283.926 15.784-142.666-14.001-275.335-111.404-387.506-78.883-90.858-176.622-152.559-297.278-173.629-156.937-27.405-298.62 8.209-420.811 109.655-98.869 82.059-157.396 187.375-172.897 313.934-20.727 169.238 34.71 312.216 159.903 429.056 74.311 69.337 162.551 112.067 264.121 127.549 2.119 0.33 4.096 1.701 6.126 2.586h148.939z" />
<glyph unicode="&#xe919;" glyph-name="FAQ-plus" d="M557.704 483.863c75.829 0.573 151.658 0.278 227.487 0.278h15.996v-75.672h-15.183c-76.288 0-152.576-0.26-228.846 0.26-12.023 0.087-92.195-0.26-111.404-0.26h-240.94v75.672h15.819c75.829 0 151.658 0.295 227.487-0.26 13.171-0.104 96.609-0.121 109.586-0.017zM930.066 445.999c-1.165 227.085-183.49 419.198-425.966 419.458-236.738 0.26-424.589-183.088-427.449-416.56-2.842-231.129 189.987-422.027 426.461-421.698 235.379 0.348 424.766 184.72 426.955 418.799v0zM583.336 942.639c12.853-2.881 25.688-5.71 38.541-8.643 92.178-21.053 172.632-63.644 239.775-129.076 80.525-78.484 132.714-173.021 144.984-283.926 15.784-142.666-14.001-275.335-111.404-387.506-78.883-90.858-176.622-152.559-297.278-173.629-156.937-27.405-298.62 8.209-420.811 109.655-98.869 82.059-157.396 187.375-172.897 313.934-20.727 169.238 34.71 312.216 159.903 429.056 74.311 69.337 162.551 112.067 264.121 127.549 2.119 0.33 4.096 1.701 6.126 2.586h148.939z" />
<glyph unicode="&#xe91a;" glyph-name="phone" d="M1023.512 151.866c2.17-16.635-2.896-31.098-15.177-43.39l-144.177-143.181c-6.504-7.232-14.994-13.384-25.473-18.441-10.479-5.064-20.776-8.318-30.89-9.763-0.723 0-2.896-0.186-6.511-0.548-3.608-0.36-8.306-0.544-14.087-0.544-13.735 0-35.959 2.35-66.674 7.053s-68.293 16.275-112.735 34.712c-44.453 18.441-94.859 46.105-151.227 82.983-56.368 36.876-116.353 87.501-179.95 151.864-50.588 49.898-92.505 97.627-125.748 143.184-33.244 45.561-59.983 87.685-80.219 126.374-20.237 38.689-35.414 73.763-45.531 105.22s-16.983 58.576-20.597 81.356c-3.613 22.78-5.059 40.678-4.336 53.695s1.084 20.249 1.084 21.695c1.445 10.124 4.697 20.429 9.756 30.915s11.202 18.983 18.429 25.491l144.177 144.271c10.118 10.124 21.681 15.186 34.689 15.186 9.395 0 17.706-2.712 24.933-8.136s13.37-12.113 18.429-20.068l115.992-220.203c6.504-11.571 8.311-24.226 5.42-37.966s-9.034-25.311-18.429-34.712l-53.118-53.152c-1.445-1.446-2.71-3.797-3.794-7.051s-1.626-5.966-1.626-8.136c2.891-15.186 9.395-32.542 19.513-52.068 8.672-17.356 22.042-38.508 40.109-63.458s43.723-53.693 76.967-86.235c32.521-33.269 61.429-59.119 86.723-77.563 25.289-18.434 46.435-31.998 63.418-40.676s29.992-13.921 39.024-15.723l13.547-2.714c1.445 0 3.799 0.544 7.048 1.627 3.252 1.087 5.601 2.35 7.048 3.798l61.788 62.915c13.016 11.569 28.185 17.354 45.531 17.354 12.289 0 22.040-2.168 29.267-6.508h1.082l209.217-123.661c15.182-9.408 24.214-21.337 27.106-35.8z" />
<glyph unicode="&#xe91b;" glyph-name="print" horiz-adv-x="1067" d="M704 234.667h-341.333v42.667h341.333v-42.667zM1045.333 746.667v-554.667h-172.715c-17.237-103.381-148.736-256-274.517-256h-406.101v256h-170.667v554.667h170.667v213.333h682.667v-213.333h170.667zM277.333 746.667h512v128h-512v-128zM789.333 362.667h-512v-341.333h285.483c148.011 0 85.333 143.019 85.333 143.019s141.184-68.011 141.184 85.333v112.981zM960 661.333h-853.333v-384h85.333v170.667h682.667v-170.667h85.333v384zM576 192h-213.333v-42.667h213.333v42.667zM896 618.667c-11.776 0-21.333-9.557-21.333-21.333s9.557-21.333 21.333-21.333c11.776 0 21.333 9.557 21.333 21.333s-9.557 21.333-21.333 21.333z" />
<glyph unicode="&#xea07;" glyph-name="warning" d="M512 867.226l429.102-855.226h-858.206l429.104 855.226zM512 960c-22.070 0-44.14-14.882-60.884-44.648l-437.074-871.112c-33.486-59.532-5-108.24 63.304-108.24h869.308c68.3 0 96.792 48.708 63.3 108.24h0.002l-437.074 871.112c-16.742 29.766-38.812 44.648-60.882 44.648v0zM576 128c0-35.346-28.654-64-64-64s-64 28.654-64 64c0 35.346 28.654 64 64 64s64-28.654 64-64zM512 256c-35.346 0-64 28.654-64 64v192c0 35.346 28.654 64 64 64s64-28.654 64-64v-192c0-35.346-28.654-64-64-64z" />
</font>
</defs>
</svg>
