<svg id="CPS_-_Flex" data-name="CPS - Flex" xmlns="http://www.w3.org/2000/svg" viewBox="0 0 212.04 29.24"><defs><style>.cls-1{fill:#d62a43;}.cls-2{fill:#fff;}</style></defs><title>CPS_FlexPerks_Logo</title><polygon class="cls-1" points="0 2.44 0 21.8 16.4 27.38 32.8 21.8 32.8 2.44 0 2.44"/><path class="cls-2" d="M20.52,23.7h-5V22h-.06A5,5,0,0,1,11,24a4.39,4.39,0,0,1-4.68-4.62V10.08h5.2v7.14c0,1.57.19,2.68,1.71,2.68.89,0,2.07-.45,2.07-2.63V10.08h5.2Z" transform="translate(-4.14 -2.51)"/><path class="cls-2" d="M30.21,14a1.35,1.35,0,0,0-.61-1,1.81,1.81,0,0,0-1.15-.4c-.74,0-1.58.16-1.58,1.05,0,.4.32.58.61.71.86.37,2.83.48,4.56,1S35.3,17,35.3,19.24c0,3.78-3.62,4.8-6.93,4.8s-6.72-1.28-6.8-4.8h5a1.71,1.71,0,0,0,.63,1.21,2.17,2.17,0,0,0,1.39.39c.69,0,1.76-.26,1.76-1.05s-.45-1-2.86-1.44c-4-.69-5.56-1.94-5.56-4.28,0-3.44,3.7-4.33,6.43-4.33,2.94,0,6.48.81,6.61,4.3Z" transform="translate(-4.14 -2.51)"/><path class="cls-2" d="M38.79,5H44v6.61h0a4.46,4.46,0,0,1,3.73-1.83c4.57,0,5.8,3.88,5.8,7.08,0,3.42-1.86,7.22-5.72,7.22-2.55,0-3.34-1-4-1.83h0V23.7h-5Zm7.3,8.56c-1.86,0-2.28,1.76-2.28,3.36s.42,3.38,2.28,3.38,2.28-1.75,2.28-3.38S48,13.52,46.09,13.52Z" transform="translate(-4.14 -2.51)"/><path class="cls-2" d="M68.06,20.66a5.46,5.46,0,0,0,.63,3h-5.3a3.79,3.79,0,0,1-.19-1.28h-.05A5.51,5.51,0,0,1,58.77,24c-2.63,0-4.8-1.26-4.8-4.12,0-4.3,5-4.15,7.69-4.64.71-.14,1.41-.34,1.41-1.21s-.86-1.26-1.7-1.26c-1.6,0-1.92.81-1.94,1.39H54.6c.15-3.83,3.78-4.46,7-4.46,6.51,0,6.46,2.7,6.46,5.33Zm-5-3.07a9.17,9.17,0,0,1-2,.65c-1.16.27-1.76.55-1.76,1.47A1.5,1.5,0,0,0,60.9,21a2.05,2.05,0,0,0,2.17-2.12Z" transform="translate(-4.14 -2.51)"/><path class="cls-2" d="M69.92,10.08h5v1.73h0a5,5,0,0,1,4.44-2.07,4.38,4.38,0,0,1,4.67,4.62V23.7H78.9V16.56c0-1.57-.18-2.68-1.7-2.68-.9,0-2.08.45-2.08,2.63V23.7h-5.2Z" transform="translate(-4.14 -2.51)"/><path class="cls-2" d="M85.94,5h5.19V14l3.31-3.94h5.88l-4.85,5.14,5.61,8.48H94.83l-2.78-4.93-.92,1V23.7H85.94Z" transform="translate(-4.14 -2.51)"/><path class="cls-2" d="M103.39,21.85a1,1,0,0,1,.3.71,1,1,0,0,1-.3.73,1,1,0,0,1-.71.29,1,1,0,0,1-.72-.29,1,1,0,0,1-.29-.73,1,1,0,0,1,.29-.71,1,1,0,0,1,.72-.3A.94.94,0,0,1,103.39,21.85Zm.12-.12a1.17,1.17,0,0,0-.83-.34,1.16,1.16,0,0,0-.83.34,1.14,1.14,0,0,0-.35.83,1.18,1.18,0,0,0,.34.84,1.18,1.18,0,1,0,1.67-1.67Zm-.66.78a.61.61,0,0,1-.22,0h-.2v-.47h.19a.63.63,0,0,1,.28.05c.06,0,.08.09.08.19A.2.2,0,0,1,102.85,22.51Zm-.65.7h.23V22.7h.18a.51.51,0,0,1,.25,0A.32.32,0,0,1,103,23v.15h0v0h.21v0a.35.35,0,0,1,0-.07v-.19a.37.37,0,0,0-.08-.2.27.27,0,0,0-.22-.12.58.58,0,0,0,.19-.07.29.29,0,0,0,.13-.25A.33.33,0,0,0,103,22a1.06,1.06,0,0,0-.36-.05h-.45Z" transform="translate(-4.14 -2.51)"/><path class="cls-2" d="M141.29,2.51V3.65h-7.55V8.71h6.7V9.84h-6.7v6.67H132.4v-14Zm2.66,0h-1.23v14H144Zm9.41,6.88a4.36,4.36,0,0,1,.24,1.36h-6.55a5.33,5.33,0,0,1,.33-1.35A3.91,3.91,0,0,1,148,8.25a3.13,3.13,0,0,1,1-.81,3,3,0,0,1,1.35-.3,2.91,2.91,0,0,1,1.34.3,3,3,0,0,1,1,.81,3.74,3.74,0,0,1,.64,1.14m-6.12,3.77a5.15,5.15,0,0,1-.19-1.38h7.79a8.07,8.07,0,0,0-.2-2.08,5.19,5.19,0,0,0-.77-1.83,4.1,4.1,0,0,0-1.4-1.28,4.14,4.14,0,0,0-2.09-.49,4.32,4.32,0,0,0-2.06.46,4,4,0,0,0-1.42,1.21,5.36,5.36,0,0,0-.82,1.72,7.6,7.6,0,0,0-.27,2,8.05,8.05,0,0,0,.27,2.05,5,5,0,0,0,.82,1.71,3.75,3.75,0,0,0,1.42,1.15,4.7,4.7,0,0,0,2.06.42,4.3,4.3,0,0,0,3-.94,4.91,4.91,0,0,0,1.44-2.66h-1.24a3.74,3.74,0,0,1-1.05,1.88,3,3,0,0,1-2.13.71,2.86,2.86,0,0,1-1.5-.38,3.36,3.36,0,0,1-1-.94,3.64,3.64,0,0,1-.6-1.29m22.51-3.79V3.65h4.58a3.45,3.45,0,0,1,2.26.7,2.61,2.61,0,0,1,.86,2.16,2.61,2.61,0,0,1-.86,2.16,3.45,3.45,0,0,1-2.26.7Zm-1.34-6.86v14h1.34v-6h4.88a5.11,5.11,0,0,0,1.71-.27,3.47,3.47,0,0,0,1.31-.78,3.4,3.4,0,0,0,.84-1.26,4.5,4.5,0,0,0,.3-1.69,4.5,4.5,0,0,0-.3-1.69,3.32,3.32,0,0,0-.84-1.26,3.62,3.62,0,0,0-1.31-.79,5.38,5.38,0,0,0-1.71-.26Zm17.81,6.88a4.36,4.36,0,0,1,.24,1.36h-6.55a5.79,5.79,0,0,1,.33-1.35,3.91,3.91,0,0,1,.65-1.15,3.07,3.07,0,0,1,1-.81,3,3,0,0,1,3.68.81,3.54,3.54,0,0,1,.64,1.14m-6.12,3.77a5.59,5.59,0,0,1-.19-1.38h7.79a8.06,8.06,0,0,0-.19-2.08,5.39,5.39,0,0,0-.78-1.83,4,4,0,0,0-3.48-1.77,4.33,4.33,0,0,0-2.07.46,4,4,0,0,0-1.42,1.21,5.36,5.36,0,0,0-.82,1.72,7.59,7.59,0,0,0-.26,2,8.05,8.05,0,0,0,.26,2.05,5,5,0,0,0,.82,1.71,3.75,3.75,0,0,0,1.42,1.15,4.72,4.72,0,0,0,2.07.42,4.29,4.29,0,0,0,3-.94,4.91,4.91,0,0,0,1.44-2.66h-1.24a3.67,3.67,0,0,1-1,1.88,3,3,0,0,1-2.12.71,2.89,2.89,0,0,1-1.51-.38,3.36,3.36,0,0,1-1-.94,3.64,3.64,0,0,1-.6-1.29m9.27-6.77V16.51h1.23V11.12a3.75,3.75,0,0,1,.28-1.48,3.45,3.45,0,0,1,.77-1.17,3.51,3.51,0,0,1,1.19-.76,3.79,3.79,0,0,1,1.53-.22V6.25a3.86,3.86,0,0,0-2.37.61,4,4,0,0,0-1.46,1.9h0V6.39Zm6.18-3.88v14h1.23V12.67l2-1.67,4,5.51h1.55l-4.61-6.37L204,6.39h-1.65l-5.61,4.9V2.51Zm15.62,5.85a2.19,2.19,0,0,1,.24,1h1.24a3.67,3.67,0,0,0-.34-1.43,3,3,0,0,0-.79-1,3.3,3.3,0,0,0-1.16-.61,5,5,0,0,0-1.42-.19,6.18,6.18,0,0,0-1.34.15,4.34,4.34,0,0,0-1.23.49,2.8,2.8,0,0,0-.89.89,2.39,2.39,0,0,0-.34,1.31,2.55,2.55,0,0,0,.21,1.09,2,2,0,0,0,.6.74,3.09,3.09,0,0,0,.89.51,9.19,9.19,0,0,0,1.12.37l1.59.35a6.21,6.21,0,0,1,.81.24,3,3,0,0,1,.72.34,1.73,1.73,0,0,1,.5.51,1.44,1.44,0,0,1,.19.75,1.48,1.48,0,0,1-.27.9,2,2,0,0,1-.68.59,3,3,0,0,1-.89.34,5.08,5.08,0,0,1-.93.1,3.34,3.34,0,0,1-2.07-.64,2.43,2.43,0,0,1-.91-1.89h-1.24a3.59,3.59,0,0,0,1.27,2.7,4.66,4.66,0,0,0,2.89.84,7,7,0,0,0,1.43-.15,4.33,4.33,0,0,0,1.31-.52,3.15,3.15,0,0,0,.95-.94,2.56,2.56,0,0,0,.37-1.41,2.47,2.47,0,0,0-.26-1.15,2.53,2.53,0,0,0-.65-.83,3.26,3.26,0,0,0-.93-.53,4.36,4.36,0,0,0-1-.29l-1.65-.37c-.21-.06-.44-.12-.69-.21a2.84,2.84,0,0,1-.68-.32,1.72,1.72,0,0,1-.52-.48,1.14,1.14,0,0,1-.21-.7,1.44,1.44,0,0,1,.22-.82,1.7,1.7,0,0,1,.56-.54,2.63,2.63,0,0,1,.78-.3,4.76,4.76,0,0,1,.83-.08,4,4,0,0,1,1,.12,2.44,2.44,0,0,1,.84.41,1.92,1.92,0,0,1,.57.69m-33,12.11c-7.35.75-13.15-3-17.67-9.25l3.64-4.83h-1.55l-2.82,3.85-2.88-3.85h-1.55l3.62,4.86L155,16.51h1.53l3.12-4.26h0c4.58,6.21,10,10,17.13,9.31a19.31,19.31,0,0,0,10.74-4.75,19.22,19.22,0,0,1-9.39,3.66m36.77-5.7a1.16,1.16,0,0,1,.38.05.33.33,0,0,1,.21.34.31.31,0,0,1-.13.28.52.52,0,0,1-.2.06.31.31,0,0,1,.23.14.37.37,0,0,1,.08.21v.2a.56.56,0,0,0,0,.07v0h-.22v0h0V16c0-.16,0-.27-.13-.32a.56.56,0,0,0-.26,0h-.19v.54h-.24V14.77Zm.36.41a.21.21,0,0,0-.1-.2.65.65,0,0,0-.29-.05h-.2v.5h.21a.63.63,0,0,0,.23,0,.22.22,0,0,0,.15-.22m.92.28a1.26,1.26,0,0,1-1.25,1.25,1.25,1.25,0,0,1-.88-2.13,1.23,1.23,0,0,1,1.76,0,1.2,1.2,0,0,1,.37.88m-1.25-1.08a1.08,1.08,0,1,0,.76,1.84,1.09,1.09,0,0,0,0-1.52,1.05,1.05,0,0,0-.76-.32" transform="translate(-4.14 -2.51)"/><path class="cls-2" d="M137.38,25.54a1.54,1.54,0,0,0-1.59-1.3c-1.36,0-1.93,1.24-1.93,2.49s.57,2.49,1.93,2.49a1.67,1.67,0,0,0,1.63-1.71h1.09a2.64,2.64,0,0,1-2.72,2.65,3.13,3.13,0,0,1-3-3.43,3.13,3.13,0,0,1,3-3.42,2.51,2.51,0,0,1,2.71,2.23Z" transform="translate(-4.14 -2.51)"/><path class="cls-2" d="M139.17,27.63a2.33,2.33,0,1,1,4.65,0,2.33,2.33,0,1,1-4.65,0Zm3.64,0c0-.81-.4-1.67-1.32-1.67s-1.31.86-1.31,1.67.4,1.68,1.31,1.68S142.81,28.45,142.81,27.63Z" transform="translate(-4.14 -2.51)"/><path class="cls-2" d="M144.67,25.27h1v.91h0a1.51,1.51,0,0,1,1.35-1,2.29,2.29,0,0,1,.39,0v1a3.49,3.49,0,0,0-.44-.05c-.7,0-1.25.58-1.25,1.62V30h-1Z" transform="translate(-4.14 -2.51)"/><path class="cls-2" d="M147.84,25.27h1v.64h0a1.54,1.54,0,0,1,1.43-.77c1.45,0,2.16,1.14,2.16,2.52s-.63,2.47-2,2.47a1.79,1.79,0,0,1-1.55-.74h0v2.36h-1Zm2.27.69c-.85,0-1.29.67-1.29,1.68s.47,1.67,1.29,1.67,1.28-.85,1.28-1.67S151,26,150.11,26Z" transform="translate(-4.14 -2.51)"/><path class="cls-2" d="M153.05,27.63a2.34,2.34,0,1,1,4.66,0,2.34,2.34,0,1,1-4.66,0Zm3.64,0c0-.81-.4-1.67-1.31-1.67s-1.31.86-1.31,1.67.4,1.68,1.31,1.68S156.69,28.45,156.69,27.63Z" transform="translate(-4.14 -2.51)"/><path class="cls-2" d="M158.55,25.27h1v.91h0a1.49,1.49,0,0,1,1.34-1,2.19,2.19,0,0,1,.39,0v1a3.29,3.29,0,0,0-.44-.05c-.69,0-1.25.58-1.25,1.62V30h-1Z" transform="translate(-4.14 -2.51)"/><path class="cls-2" d="M165.56,29c0,.26.05.36.24.36a1.29,1.29,0,0,0,.25,0V30a2.27,2.27,0,0,1-.64.12.69.69,0,0,1-.79-.58,2.29,2.29,0,0,1-1.59.58,1.42,1.42,0,0,1-1.58-1.38c0-1.18.91-1.38,1.77-1.48s1.39-.05,1.39-.66-.55-.65-1-.65c-.57,0-1,.24-1,.76h-1c.08-1.22,1.09-1.58,2.1-1.58s1.85.38,1.85,1.37Zm-1-1.32a3.49,3.49,0,0,1-1.25.28c-.43.08-.83.24-.83.79s.58.61.94.61,1.14-.24,1.14-.9Z" transform="translate(-4.14 -2.51)"/><path class="cls-2" d="M166.19,25.27H167V23.85h1v1.42h.92v.78H168v2.52c0,.43,0,.65.49.65a2.12,2.12,0,0,0,.43,0V30c-.23,0-.44.06-.66.06-1.07,0-1.26-.42-1.28-1.21V26.05h-.77Z" transform="translate(-4.14 -2.51)"/><path class="cls-2" d="M170.42,27.91a1.25,1.25,0,0,0,1.24,1.4,1.08,1.08,0,0,0,1.13-.79h1a2,2,0,0,1-2.09,1.61,2.22,2.22,0,0,1-2.26-2.49,2.24,2.24,0,1,1,4.41.27Zm2.38-.69a1.19,1.19,0,1,0-2.38,0Z" transform="translate(-4.14 -2.51)"/><path class="cls-2" d="M177.21,23.47h3c1.39,0,2.1.66,2.1,1.76a1.58,1.58,0,0,1-1.05,1.65v0c.38.05.94.35.94,1.38A3,3,0,0,0,182.6,30h-1.19a1.85,1.85,0,0,1-.17-1c0-1.2-.24-1.73-1.27-1.73h-1.64V30h-1.12Zm1.12,3h1.83a1,1,0,0,0,1.09-1c0-.84-.53-1-1.11-1h-1.81Z" transform="translate(-4.14 -2.51)"/><path class="cls-2" d="M184.15,27.91a1.25,1.25,0,0,0,1.24,1.4,1.07,1.07,0,0,0,1.12-.79h1a2,2,0,0,1-2.08,1.61,2.22,2.22,0,0,1-2.26-2.49,2.24,2.24,0,1,1,4.41.27Zm2.37-.69A1.23,1.23,0,0,0,185.36,26a1.21,1.21,0,0,0-1.21,1.26Z" transform="translate(-4.14 -2.51)"/><path class="cls-2" d="M187.89,25.27H189l.9,3.53h0l.87-3.53h1l.83,3.53h0l.94-3.53h1L193.16,30h-1l-.85-3.51h0L190.39,30h-1.07Z" transform="translate(-4.14 -2.51)"/><path class="cls-2" d="M199.12,29c0,.26,0,.36.24.36a1.29,1.29,0,0,0,.25,0V30a2.27,2.27,0,0,1-.64.12.69.69,0,0,1-.79-.58,2.29,2.29,0,0,1-1.6.58A1.42,1.42,0,0,1,195,28.75c0-1.18.92-1.38,1.78-1.48s1.38-.05,1.38-.66-.54-.65-.95-.65c-.57,0-1,.24-1,.76h-1c.08-1.22,1.08-1.58,2.1-1.58s1.85.38,1.85,1.37Zm-1-1.32a3.49,3.49,0,0,1-1.25.28c-.44.08-.83.24-.83.79s.58.61.94.61,1.14-.24,1.14-.9Z" transform="translate(-4.14 -2.51)"/><path class="cls-2" d="M200.22,25.27h.95v.91h0a1.49,1.49,0,0,1,1.35-1,2.14,2.14,0,0,1,.38,0v1a3.12,3.12,0,0,0-.44-.05c-.69,0-1.25.58-1.25,1.62V30h-1Z" transform="translate(-4.14 -2.51)"/><path class="cls-2" d="M207.54,30h-1v-.64h0a1.53,1.53,0,0,1-1.43.77c-1.45,0-2.16-1.11-2.16-2.53,0-1.71,1-2.46,2-2.46a1.77,1.77,0,0,1,1.54.74h0V23.47h1Zm-2.27-.69c.91,0,1.29-.86,1.29-1.68,0-1-.49-1.67-1.27-1.67-1,0-1.3.87-1.3,1.73S204.38,29.31,205.27,29.31Z" transform="translate(-4.14 -2.51)"/><path class="cls-2" d="M209.42,28.48c.05.61.5.83,1,.83.38,0,1-.09,1-.63s-.77-.61-1.51-.78-1.48-.44-1.48-1.4,1.09-1.36,1.93-1.36a1.7,1.7,0,0,1,1.92,1.46h-1.06c-.09-.5-.49-.64-.94-.64-.29,0-.84.08-.84.49s.75.59,1.5.76,1.49.45,1.49,1.38c0,1.13-1.1,1.54-2.06,1.54-1.16,0-2-.53-2-1.65Z" transform="translate(-4.14 -2.51)"/><rect class="cls-2" x="113.53" y="2.44" width="0.95" height="18.9"/></svg>